<?xml version="1.0" encoding="utf-8"?>
<!-- Generator: Adobe Illustrator 17.0.0, SVG Export Plug-In . SVG Version: 6.00 Build 0)  -->
<!DOCTYPE svg PUBLIC "-//W3C//DTD SVG 1.1//EN" "http://www.w3.org/Graphics/SVG/1.1/DTD/svg11.dtd">
<svg version="1.1" xmlns="http://www.w3.org/2000/svg" xmlns:xlink="http://www.w3.org/1999/xlink" x="0px" y="0px" width="31.5px"
	 height="25.5px" viewBox="0 0 31.5 25.5" enable-background="new 0 0 31.5 25.5" xml:space="preserve">
<g id="Layer_1" display="none">
</g>
<g id="Layer_4" display="none">
</g>
<g id="Layer_3">
</g>
<g id="Layer_5">
</g>
<g id="Design">
	<path fill="#063466" d="M29.333,5.833c0,1.105-0.895,2-2,2h-23c-1.105,0-2-0.895-2-2V5.5c0-1.105,0.895-2,2-2h23
		c1.105,0,2,0.895,2,2V5.833z"/>
	<path fill="#063466" d="M29.333,13.083c0,1.105-0.895,2-2,2h-23c-1.105,0-2-0.895-2-2V12.75c0-1.105,0.895-2,2-2h23
		c1.105,0,2,0.895,2,2V13.083z"/>
	<path fill="#063466" d="M29.333,20.333c0,1.105-0.895,2-2,2h-23c-1.105,0-2-0.895-2-2V20c0-1.105,0.895-2,2-2h23
		c1.105,0,2,0.895,2,2V20.333z"/>
</g>
<g id="Layer_2">
</g>
</svg>
